<svg width="29" height="31" viewBox="0 0 29 31" fill="none" xmlns="http://www.w3.org/2000/svg">
<g opacity="0.5" filter="url(#filter0_d_19_27)">
<mask id="mask0_19_27" style="mask-type:alpha" maskUnits="userSpaceOnUse" x="2" y="0" width="25" height="25">
<rect x="2.25" y="0.5" width="24" height="24" fill="#D9D9D9"/>
</mask>
<g mask="url(#mask0_19_27)">
<path d="M10.2578 22.5C9.70781 22.5 9.23698 22.3042 8.84531 21.9125C8.45365 21.5208 8.25781 21.05 8.25781 20.5C8.25781 19.95 8.45365 19.4792 8.84531 19.0875C9.23698 18.6958 9.70781 18.5 10.2578 18.5C10.8078 18.5 11.2786 18.6958 11.6703 19.0875C12.062 19.4792 12.2578 19.95 12.2578 20.5C12.2578 21.05 12.062 21.5208 11.6703 21.9125C11.2786 22.3042 10.8078 22.5 10.2578 22.5ZM20.2578 22.5C19.7078 22.5 19.237 22.3042 18.8453 21.9125C18.4536 21.5208 18.2578 21.05 18.2578 20.5C18.2578 19.95 18.4536 19.4792 18.8453 19.0875C19.237 18.6958 19.7078 18.5 20.2578 18.5C20.8078 18.5 21.2786 18.6958 21.6703 19.0875C22.062 19.4792 22.2578 19.95 22.2578 20.5C22.2578 21.05 22.062 21.5208 21.6703 21.9125C21.2786 22.3042 20.8078 22.5 20.2578 22.5ZM9.40781 6.5L11.8078 11.5H18.8078L21.5578 6.5H9.40781ZM8.45781 4.5H23.2078C23.5911 4.5 23.8828 4.67083 24.0828 5.0125C24.2828 5.35417 24.2911 5.7 24.1078 6.05L20.5578 12.45C20.3745 12.7833 20.1286 13.0417 19.8203 13.225C19.512 13.4083 19.1745 13.5 18.8078 13.5H11.3578L10.2578 15.5H22.2578V17.5H10.2578C9.50781 17.5 8.94115 17.1708 8.55781 16.5125C8.17448 15.8542 8.15781 15.2 8.50781 14.55L9.85781 12.1L6.25781 4.5H4.25781V2.5H7.50781L8.45781 4.5Z" fill="#5F6368"/>
</g>
</g>
<defs>
<filter id="filter0_d_19_27" x="0.257812" y="2.5" width="27.9815" height="28" filterUnits="userSpaceOnUse" color-interpolation-filters="sRGB">
<feFlood flood-opacity="0" result="BackgroundImageFix"/>
<feColorMatrix in="SourceAlpha" type="matrix" values="0 0 0 0 0 0 0 0 0 0 0 0 0 0 0 0 0 0 127 0" result="hardAlpha"/>
<feOffset dy="4"/>
<feGaussianBlur stdDeviation="2"/>
<feComposite in2="hardAlpha" operator="out"/>
<feColorMatrix type="matrix" values="0 0 0 0 0 0 0 0 0 0 0 0 0 0 0 0 0 0 0.25 0"/>
<feBlend mode="normal" in2="BackgroundImageFix" result="effect1_dropShadow_19_27"/>
<feBlend mode="normal" in="SourceGraphic" in2="effect1_dropShadow_19_27" result="shape"/>
</filter>
</defs>
</svg>
