<svg width="25" height="31" viewBox="0 0 25 31" fill="none" xmlns="http://www.w3.org/2000/svg">
<g filter="url(#filter0_d_19_32)">
<mask id="mask0_19_32" style="mask-type:alpha" maskUnits="userSpaceOnUse" x="0" y="0" width="25" height="25">
<rect x="0.75" y="0.5" width="24" height="24" fill="#D9D9D9"/>
</mask>
<g mask="url(#mask0_19_32)">
<path opacity="0.5" d="M8.75 18.5H16.75V16.5H8.75V18.5ZM8.75 14.5H16.75V12.5H8.75V14.5ZM6.75 22.5C6.2 22.5 5.72917 22.3042 5.3375 21.9125C4.94583 21.5208 4.75 21.05 4.75 20.5V4.5C4.75 3.95 4.94583 3.47917 5.3375 3.0875C5.72917 2.69583 6.2 2.5 6.75 2.5H14.75L20.75 8.5V20.5C20.75 21.05 20.5542 21.5208 20.1625 21.9125C19.7708 22.3042 19.3 22.5 18.75 22.5H6.75ZM13.75 9.5V4.5H6.75V20.5H18.75V9.5H13.75Z" fill="#5F6368"/>
</g>
</g>
<defs>
<filter id="filter0_d_19_32" x="0.75" y="2.5" width="24" height="28" filterUnits="userSpaceOnUse" color-interpolation-filters="sRGB">
<feFlood flood-opacity="0" result="BackgroundImageFix"/>
<feColorMatrix in="SourceAlpha" type="matrix" values="0 0 0 0 0 0 0 0 0 0 0 0 0 0 0 0 0 0 127 0" result="hardAlpha"/>
<feOffset dy="4"/>
<feGaussianBlur stdDeviation="2"/>
<feComposite in2="hardAlpha" operator="out"/>
<feColorMatrix type="matrix" values="0 0 0 0 0 0 0 0 0 0 0 0 0 0 0 0 0 0 0.25 0"/>
<feBlend mode="normal" in2="BackgroundImageFix" result="effect1_dropShadow_19_32"/>
<feBlend mode="normal" in="SourceGraphic" in2="effect1_dropShadow_19_32" result="shape"/>
</filter>
</defs>
</svg>
